<svg xmlns="http://www.w3.org/2000/svg" xmlns:xlink="http://www.w3.org/1999/xlink" width="2000" zoomAndPan="magnify" viewBox="0 0 1500 1499.999933" height="2000" preserveAspectRatio="xMidYMid meet" version="1.0"><defs><g/><clipPath id="580cf7eecf"><path d="M 466.339844 357.898438 L 1033.339844 357.898438 L 1033.339844 897.898438 L 466.339844 897.898438 Z M 466.339844 357.898438 " clip-rule="nonzero"/></clipPath><clipPath id="1d491dc128"><rect x="0" width="523" y="0" height="52"/></clipPath><clipPath id="48d107724c"><rect x="0" width="500" y="0" height="169"/></clipPath></defs><rect x="-150" width="1800" fill="#ffffff" y="-149.999993" height="1799.99992" fill-opacity="0"/><rect x="-150" width="1800" fill="#242424" y="-149.999993" height="1799.99992" fill-opacity="0"/><g clip-path="url(#580cf7eecf)"><path fill="#efefef" d="M 1023.875 538.460938 C 993.183594 425.4375 900.328125 357.957031 775.484375 357.957031 L 466.34375 357.957031 L 472.441406 371.933594 C 498.644531 431.988281 557.925781 470.8125 623.460938 470.832031 L 707.636719 470.832031 L 708.328125 470.8125 C 711.527344 470.582031 723.347656 469.863281 741.082031 469.863281 C 758.136719 469.863281 775.511719 470.535156 792.664062 471.851562 L 794.351562 471.980469 C 860.027344 477.148438 950.007812 494.316406 1005.613281 546.664062 L 1006.328125 547.332031 C 1006.617188 547.609375 1006.914062 547.875 1007.1875 548.160156 L 1033.652344 574.511719 Z M 1032.34375 668.722656 L 1032.273438 669.808594 C 1015.574219 810.636719 916.121094 898.109375 772.730469 898.109375 L 575.507812 898.109375 L 575.507812 631.492188 L 585.488281 631.492188 C 643.226562 631.492188 690.199219 678.464844 690.199219 736.203125 L 690.199219 783.410156 L 777.546875 783.410156 C 820.566406 783.410156 856.789062 769.285156 882.324219 742.550781 C 908.304688 715.34375 922.03125 676.027344 922.03125 628.84375 L 922.03125 627.226562 C 922.03125 590.691406 914 559.191406 898.148438 533.585938 L 883.355469 509.683594 L 909.910156 518.898438 C 942.859375 530.332031 969.589844 545.558594 989.347656 564.171875 C 1018.21875 591.363281 1032.683594 626.535156 1032.34375 668.722656 " fill-opacity="1" fill-rule="nonzero"/></g><g transform="matrix(1, 0, 0, 1, 502, 1092)"><g clip-path="url(#1d491dc128)"><g fill="#ffffff" fill-opacity="1"><g transform="translate(1.066356, 40.079437)"><g><path d="M 16.421875 0.328125 C 12.546875 0.328125 9.523438 -0.773438 7.359375 -2.984375 C 5.191406 -5.203125 4.109375 -8.394531 4.109375 -12.5625 L 4.109375 -29.109375 L 8.28125 -29.109375 L 8.28125 -12.71875 C 8.28125 -6.488281 11.007812 -3.375 16.46875 -3.375 C 19.125 -3.375 21.160156 -4.140625 22.578125 -5.671875 C 23.992188 -7.210938 24.703125 -9.5625 24.703125 -12.71875 L 24.703125 -29.109375 L 28.734375 -29.109375 L 28.734375 -12.5625 C 28.734375 -8.375 27.648438 -5.175781 25.484375 -2.96875 C 23.328125 -0.769531 20.304688 0.328125 16.421875 0.328125 Z M 16.421875 0.328125 "/></g></g></g><g fill="#ffffff" fill-opacity="1"><g transform="translate(60.244787, 40.079437)"><g><path d="M 29.390625 -29.109375 L 29.390625 0 L 25.984375 0 L 8.53125 -21.703125 L 8.53125 0 L 4.359375 0 L 4.359375 -29.109375 L 7.78125 -29.109375 L 25.234375 -7.40625 L 25.234375 -29.109375 Z M 29.390625 -29.109375 "/></g></g></g><g fill="#ffffff" fill-opacity="1"><g transform="translate(120.296279, 40.079437)"><g><path d="M 4.359375 -29.109375 L 8.53125 -29.109375 L 8.53125 0 L 4.359375 0 Z M 4.359375 -29.109375 "/></g></g></g><g fill="#ffffff" fill-opacity="1"><g transform="translate(159.477614, 40.079437)"><g><path d="M 29.640625 -29.109375 L 16.875 0 L 12.765625 0 L -0.046875 -29.109375 L 4.453125 -29.109375 L 14.921875 -5.203125 L 25.484375 -29.109375 Z M 29.640625 -29.109375 "/></g></g></g><g fill="#ffffff" fill-opacity="1"><g transform="translate(215.371687, 40.079437)"><g><path d="M 25.484375 -3.625 L 25.484375 0 L 4.359375 0 L 4.359375 -29.109375 L 24.90625 -29.109375 L 24.90625 -25.484375 L 8.53125 -25.484375 L 8.53125 -16.546875 L 23.125 -16.546875 L 23.125 -13.015625 L 8.53125 -13.015625 L 8.53125 -3.625 Z M 25.484375 -3.625 "/></g></g></g><g fill="#ffffff" fill-opacity="1"><g transform="translate(269.519637, 40.079437)"><g><path d="M 23.828125 0 L 17.546875 -8.9375 C 16.765625 -8.882812 16.15625 -8.859375 15.71875 -8.859375 L 8.53125 -8.859375 L 8.53125 0 L 4.359375 0 L 4.359375 -29.109375 L 15.71875 -29.109375 C 19.488281 -29.109375 22.453125 -28.207031 24.609375 -26.40625 C 26.773438 -24.601562 27.859375 -22.117188 27.859375 -18.953125 C 27.859375 -16.710938 27.300781 -14.800781 26.1875 -13.21875 C 25.082031 -11.644531 23.503906 -10.492188 21.453125 -9.765625 L 28.359375 0 Z M 15.59375 -12.390625 C 18.226562 -12.390625 20.238281 -12.957031 21.625 -14.09375 C 23.007812 -15.226562 23.703125 -16.847656 23.703125 -18.953125 C 23.703125 -21.066406 23.007812 -22.679688 21.625 -23.796875 C 20.238281 -24.921875 18.226562 -25.484375 15.59375 -25.484375 L 8.53125 -25.484375 L 8.53125 -12.390625 Z M 15.59375 -12.390625 "/></g></g></g><g fill="#ffffff" fill-opacity="1"><g transform="translate(326.03733, 40.079437)"><g><path d="M 12.84375 0.328125 C 10.65625 0.328125 8.539062 -0.0078125 6.5 -0.6875 C 4.46875 -1.363281 2.867188 -2.242188 1.703125 -3.328125 L 3.25 -6.5625 C 4.351562 -5.570312 5.769531 -4.765625 7.5 -4.140625 C 9.238281 -3.515625 11.019531 -3.203125 12.84375 -3.203125 C 15.257812 -3.203125 17.0625 -3.609375 18.25 -4.421875 C 19.445312 -5.242188 20.046875 -6.332031 20.046875 -7.6875 C 20.046875 -8.6875 19.71875 -9.5 19.0625 -10.125 C 18.414062 -10.75 17.613281 -11.226562 16.65625 -11.5625 C 15.695312 -11.894531 14.34375 -12.269531 12.59375 -12.6875 C 10.40625 -13.207031 8.640625 -13.726562 7.296875 -14.25 C 5.953125 -14.78125 4.800781 -15.59375 3.84375 -16.6875 C 2.882812 -17.78125 2.40625 -19.257812 2.40625 -21.125 C 2.40625 -22.675781 2.8125 -24.070312 3.625 -25.3125 C 4.445312 -26.5625 5.691406 -27.5625 7.359375 -28.3125 C 9.023438 -29.0625 11.085938 -29.4375 13.546875 -29.4375 C 15.265625 -29.4375 16.957031 -29.210938 18.625 -28.765625 C 20.289062 -28.328125 21.71875 -27.691406 22.90625 -26.859375 L 21.53125 -23.53125 C 20.3125 -24.3125 19.007812 -24.898438 17.625 -25.296875 C 16.238281 -25.703125 14.878906 -25.90625 13.546875 -25.90625 C 11.191406 -25.90625 9.425781 -25.472656 8.25 -24.609375 C 7.070312 -23.753906 6.484375 -22.644531 6.484375 -21.28125 C 6.484375 -20.289062 6.816406 -19.484375 7.484375 -18.859375 C 8.148438 -18.234375 8.972656 -17.742188 9.953125 -17.390625 C 10.941406 -17.046875 12.28125 -16.679688 13.96875 -16.296875 C 16.15625 -15.773438 17.914062 -15.25 19.25 -14.71875 C 20.582031 -14.1875 21.722656 -13.378906 22.671875 -12.296875 C 23.628906 -11.222656 24.109375 -9.769531 24.109375 -7.9375 C 24.109375 -6.414062 23.691406 -5.023438 22.859375 -3.765625 C 22.035156 -2.503906 20.773438 -1.503906 19.078125 -0.765625 C 17.390625 -0.0351562 15.3125 0.328125 12.84375 0.328125 Z M 12.84375 0.328125 "/></g></g></g><g fill="#ffffff" fill-opacity="1"><g transform="translate(378.148165, 40.079437)"><g><path d="M 4.359375 -29.109375 L 8.53125 -29.109375 L 8.53125 0 L 4.359375 0 Z M 4.359375 -29.109375 "/></g></g></g><g fill="#ffffff" fill-opacity="1"><g transform="translate(417.3295, 40.079437)"><g><path d="M 10.140625 -25.484375 L 0.171875 -25.484375 L 0.171875 -29.109375 L 24.234375 -29.109375 L 24.234375 -25.484375 L 14.265625 -25.484375 L 14.265625 0 L 10.140625 0 Z M 10.140625 -25.484375 "/></g></g></g><g fill="#ffffff" fill-opacity="1"><g transform="translate(468.026841, 40.079437)"><g><path d="M 15.515625 -10.0625 L 15.515625 0 L 11.390625 0 L 11.390625 -10.140625 L -0.171875 -29.109375 L 4.28125 -29.109375 L 13.59375 -13.765625 L 22.953125 -29.109375 L 27.0625 -29.109375 Z M 15.515625 -10.0625 "/></g></g></g></g></g><g transform="matrix(1, 0, 0, 1, 512, 930)"><g clip-path="url(#48d107724c)"><g fill="#ffffff" fill-opacity="1"><g transform="translate(2.996911, 134.379458)"><g><path d="M 7.9375 0 L 7.9375 -93.96875 L 41.03125 -93.96875 C 59.820312 -93.96875 74.003906 -90.019531 83.578125 -82.125 C 93.160156 -74.226562 97.953125 -62.5625 97.953125 -47.125 C 97.953125 -40.320312 96.710938 -34.050781 94.234375 -28.3125 C 91.765625 -22.582031 88.28125 -17.597656 83.78125 -13.359375 C 79.28125 -9.128906 73.960938 -5.84375 67.828125 -3.5 C 61.703125 -1.164062 55.019531 0 47.78125 0 Z M 34.40625 -23.296875 L 45.921875 -23.296875 C 54.304688 -23.296875 60.640625 -25.28125 64.921875 -29.25 C 69.203125 -33.21875 71.34375 -38.953125 71.34375 -46.453125 C 71.34375 -54.835938 69.09375 -60.972656 64.59375 -64.859375 C 60.09375 -68.742188 53.078125 -70.6875 43.546875 -70.6875 L 34.40625 -70.6875 Z M 34.40625 -23.296875 "/></g></g></g><g fill="#ffffff" fill-opacity="1"><g transform="translate(128.332551, 134.379458)"><g><path d="M 68.6875 -93.96875 L 94.640625 -93.96875 L 94.90625 -42.484375 C 94.988281 -33.835938 93.222656 -26.203125 89.609375 -19.578125 C 85.992188 -12.960938 80.921875 -7.800781 74.390625 -4.09375 C 67.859375 -0.394531 60.269531 1.453125 51.625 1.453125 C 37.5 1.453125 26.617188 -2.070312 18.984375 -9.125 C 11.359375 -16.1875 7.546875 -26.644531 7.546875 -40.5 L 7.546875 -93.96875 L 34.015625 -93.96875 L 34.015625 -41.828125 C 34.015625 -34.679688 35.664062 -29.5625 38.96875 -26.46875 C 42.28125 -23.382812 46.539062 -21.84375 51.75 -21.84375 C 57.21875 -21.84375 61.472656 -23.519531 64.515625 -26.875 C 67.566406 -30.226562 69.046875 -35.738281 68.953125 -43.40625 Z M 68.6875 -93.96875 "/></g></g></g><g fill="#ffffff" fill-opacity="1"><g transform="translate(254.594619, 134.379458)"><g><path d="M 90.796875 -24.359375 L 96.890625 -3.96875 C 94.765625 -2.289062 91.9375 -0.945312 88.40625 0.0625 C 84.882812 1.082031 81.3125 1.59375 77.6875 1.59375 C 70.71875 1.59375 64.9375 0.3125 60.34375 -2.25 C 55.757812 -4.8125 52.054688 -8.429688 49.234375 -13.109375 L 40.5 -27.796875 C 39.4375 -29.554688 38.421875 -30.878906 37.453125 -31.765625 C 36.484375 -32.648438 35.296875 -33.222656 33.890625 -33.484375 L 33.890625 0 L 7.9375 0 L 7.9375 -93.96875 L 39.703125 -93.96875 C 54.179688 -93.96875 64.878906 -91.234375 71.796875 -85.765625 C 78.722656 -80.296875 82.1875 -72.707031 82.1875 -63 C 82.1875 -56.113281 80.203125 -50.398438 76.234375 -45.859375 C 72.265625 -41.316406 67.015625 -38.117188 60.484375 -36.265625 C 63.835938 -35.203125 66.488281 -33.21875 68.4375 -30.3125 L 70.8125 -26.734375 C 73.019531 -23.296875 76.414062 -21.578125 81 -21.578125 C 82.675781 -21.578125 84.332031 -21.773438 85.96875 -22.171875 C 87.601562 -22.566406 89.210938 -23.296875 90.796875 -24.359375 Z M 39.4375 -72.671875 L 33.890625 -72.671875 L 33.890625 -54 L 40.640625 -54 C 46.367188 -54 50.359375 -54.769531 52.609375 -56.3125 C 54.859375 -57.863281 55.984375 -60.269531 55.984375 -63.53125 C 55.984375 -67.0625 54.460938 -69.46875 51.421875 -70.75 C 48.378906 -72.03125 44.382812 -72.671875 39.4375 -72.671875 Z M 39.4375 -72.671875 "/></g></g></g><g fill="#ffffff" fill-opacity="1"><g transform="translate(369.210354, 134.379458)"><g><path d="M 55.71875 -53.34375 L 98.875 -53.34375 L 98.875 0 L 77.953125 0 L 76.234375 -8.078125 C 73.503906 -4.898438 69.890625 -2.515625 65.390625 -0.921875 C 60.890625 0.660156 56.078125 1.453125 50.953125 1.453125 C 41.335938 1.453125 32.976562 -0.394531 25.875 -4.09375 C 18.769531 -7.800781 13.273438 -13.140625 9.390625 -20.109375 C 5.515625 -27.085938 3.578125 -35.382812 3.578125 -45 C 3.578125 -54.96875 5.800781 -63.722656 10.25 -71.265625 C 14.707031 -78.816406 20.972656 -84.707031 29.046875 -88.9375 C 37.117188 -93.175781 46.539062 -95.296875 57.3125 -95.296875 C 67.28125 -95.296875 75.53125 -93.707031 82.0625 -90.53125 C 88.59375 -87.351562 94.019531 -82.5 98.34375 -75.96875 L 78.21875 -61.421875 C 76.195312 -65.035156 73.265625 -67.632812 69.421875 -69.21875 C 65.585938 -70.8125 61.59375 -71.609375 57.4375 -71.609375 C 49.320312 -71.609375 42.90625 -69.222656 38.1875 -64.453125 C 33.46875 -59.691406 31.109375 -53.425781 31.109375 -45.65625 C 31.109375 -38.25 33.15625 -32.472656 37.25 -28.328125 C 41.351562 -24.179688 47.023438 -22.109375 54.265625 -22.109375 C 58.410156 -22.109375 62.140625 -22.96875 65.453125 -24.6875 C 68.765625 -26.40625 71.082031 -28.851562 72.40625 -32.03125 L 55.71875 -32.03125 Z M 55.71875 -53.34375 "/></g></g></g></g></g></svg>